<svg width="18" height="18" fill="none" xmlns="http://www.w3.org/2000/svg"><path opacity=".9" d="M17.433 8.366a.748.748 0 00-.088-.072L9.639.588a.822.822 0 00-1.163 1.163l7.205 7.204-7.205 7.205a.822.822 0 001.163 1.163l7.706-7.706c.03-.023.06-.045.088-.072a.819.819 0 00.24-.59.819.819 0 00-.24-.589z" fill="#fff"/><path d="M9.567 9.612a.819.819 0 00.24-.59.819.819 0 00-.24-.59c-.028-.027-.058-.048-.088-.071L1.773.655A.822.822 0 10.61 1.818l7.204 7.204L.61 16.227a.822.822 0 001.163 1.162l7.706-7.706c.03-.022.06-.044.088-.071z" fill="#fff" fill-opacity=".5"/></svg>