<svg width="30" height="30" fill="none" xmlns="http://www.w3.org/2000/svg"><path d="M21.045 11.414h-3.758v-1h3.76v1.002l-.002-.002zm-6.26 4.103c.243.402.364.89.364 1.465 0 .594-.135 1.125-.414 1.596a2.7 2.7 0 01-.73.837c-.295.222-.63.375-.984.45a6.07 6.07 0 01-1.318.135H7.5V10h4.508c1.135.02 1.94.373 2.416 1.066.285.424.428.933.428 1.526 0 .611-.143 1.101-.433 1.473-.159.209-.396.398-.709.569.474.186.834.478 1.075.883zm-5.133-1.575h1.976c.405 0 .733-.082.986-.247.253-.166.379-.458.379-.88 0-.465-.167-.774-.501-.922a3.306 3.306 0 00-1.103-.157H9.653v2.206zm3.532 2.896c0-.519-.2-.877-.595-1.07-.222-.11-.534-.165-.933-.17H9.652v2.664h1.973c.405 0 .72-.056.945-.175.408-.217.614-.631.614-1.248zm9.256-1.626c.045.328.066.802.058 1.422h-4.867c.027.72.258 1.224.699 1.511.264.182.585.27.963.27.398 0 .72-.107.97-.33a1.55 1.55 0 00.359-.491h1.785c-.048.426-.262.857-.648 1.295-.6.696-1.437 1.045-2.515 1.045a3.5 3.5 0 01-2.355-.88c-.678-.589-1.02-1.544-1.02-2.87 0-1.242.307-2.193.92-2.856.615-.663 1.412-.993 2.393-.993.58 0 1.104.111 1.572.334.465.226.85.577 1.153 1.061.275.428.45.92.533 1.482zm-1.755.187c-.033-.499-.189-.875-.468-1.132a1.463 1.463 0 00-1.035-.389c-.45 0-.796.14-1.044.412-.248.273-.402.642-.465 1.109h3.012z" fill="#fff"/><path d="M6.75 4A2.75 2.75 0 004 6.75v16.5A2.75 2.75 0 006.75 26h16.5A2.75 2.75 0 0026 23.25V6.75A2.75 2.75 0 0023.25 4H6.75zm0-2.75h16.5a5.5 5.5 0 015.5 5.5v16.5a5.5 5.5 0 01-5.5 5.5H6.75a5.5 5.5 0 01-5.5-5.5V6.75a5.5 5.5 0 015.5-5.5z" fill="#fff"/></svg>