<svg width="44" height="44" fill="none" xmlns="http://www.w3.org/2000/svg"><path d="M30.405 16.643h-5.348V15.22h5.35v1.426l-.002-.003zm-8.909 5.84c.346.572.517 1.267.517 2.084 0 .846-.192 1.601-.59 2.271a3.838 3.838 0 01-1.037 1.193c-.42.316-.897.534-1.4.64a8.65 8.65 0 01-1.877.192h-5.982V14.63h6.415c1.616.028 2.763.531 3.44 1.517.405.604.608 1.329.608 2.173 0 .87-.203 1.567-.615 2.095-.226.298-.563.568-1.01.81.675.265 1.187.682 1.531 1.258zm-7.306-2.242h2.812c.576 0 1.044-.116 1.403-.352.36-.235.54-.652.54-1.251 0-.663-.237-1.103-.713-1.313a4.706 4.706 0 00-1.57-.224H14.19v3.14zm5.026 4.122c0-.738-.284-1.248-.845-1.523-.316-.155-.76-.236-1.328-.242H14.19v3.792h2.808c.576 0 1.025-.08 1.345-.25.58-.308.873-.898.873-1.777zm13.175-2.314c.064.466.093 1.141.083 2.024h-6.928c.038 1.025.367 1.74.995 2.15.376.259.832.385 1.37.385.566 0 1.025-.154 1.382-.47a2.21 2.21 0 00.51-.7h2.54c-.068.607-.373 1.22-.922 1.844-.854.99-2.045 1.487-3.58 1.487a4.982 4.982 0 01-3.352-1.253c-.965-.838-1.451-2.196-1.451-4.083 0-1.769.437-3.123 1.31-4.065.876-.945 2.01-1.414 3.405-1.414.827 0 1.572.158 2.238.476.662.32 1.21.821 1.642 1.51.39.608.64 1.308.758 2.109zm-2.498.265c-.047-.71-.27-1.244-.666-1.61a2.081 2.081 0 00-1.474-.554c-.64 0-1.133.199-1.485.586-.353.388-.573.915-.662 1.578h4.287z" fill="#fff"/><path d="M10.06 6.09a3.914 3.914 0 00-3.915 3.915v23.484a3.914 3.914 0 003.914 3.914h23.484a3.914 3.914 0 003.914-3.914V10.005a3.914 3.914 0 00-3.914-3.914H10.06zm0-3.913h23.483a7.828 7.828 0 017.828 7.828v23.484a7.828 7.828 0 01-7.828 7.828H10.06a7.828 7.828 0 01-7.828-7.828V10.005a7.828 7.828 0 017.828-7.828z" fill="#fff"/></svg>