<svg width="43" height="44" fill="none" xmlns="http://www.w3.org/2000/svg"><path d="M18.442 15.208v2.94h-2.306v3.593h2.306v10.68h4.74v-10.68h3.18s.3-1.723.444-3.608h-3.605v-2.455c0-.37.517-.863 1.03-.863h2.58v-3.742h-3.512c-4.973 0-4.857 3.597-4.857 4.135z" fill="#fff"/><path d="M9.732 6.091a3.914 3.914 0 00-3.914 3.914v23.484a3.914 3.914 0 003.914 3.914h23.484a3.914 3.914 0 003.914-3.914V10.005a3.914 3.914 0 00-3.914-3.914H9.732zm0-3.914h23.484a7.828 7.828 0 017.828 7.828v23.484a7.828 7.828 0 01-7.828 7.828H9.732a7.828 7.828 0 01-7.828-7.828V10.005a7.828 7.828 0 017.828-7.828z" fill="#fff"/></svg>