<svg width="30" height="30" fill="none" xmlns="http://www.w3.org/2000/svg"><path d="M12.87 10.405v2.066h-1.62v2.524h1.62V22.5h3.33v-7.505h2.235s.21-1.21.312-2.534h-2.533v-1.726c0-.259.363-.605.723-.605h1.813V7.5h-2.467c-3.495 0-3.413 2.527-3.413 2.905z" fill="#fff"/><path d="M6.75 4A2.75 2.75 0 004 6.75v16.5A2.75 2.75 0 006.75 26h16.5A2.75 2.75 0 0026 23.25V6.75A2.75 2.75 0 0023.25 4H6.75zm0-2.75h16.5a5.5 5.5 0 015.5 5.5v16.5a5.5 5.5 0 01-5.5 5.5H6.75a5.5 5.5 0 01-5.5-5.5V6.75a5.5 5.5 0 015.5-5.5z" fill="#fff"/></svg>