<svg width="43" height="44" fill="none" xmlns="http://www.w3.org/2000/svg"><path fill-rule="evenodd" clip-rule="evenodd" d="M13.57 2.294c2.086-.096 2.752-.117 8.067-.117 5.316 0 5.982.023 8.067.117s3.508.427 4.754.91a9.628 9.628 0 013.465 2.259 9.56 9.56 0 012.256 3.464c.484 1.245.815 2.668.911 4.75.096 2.09.118 2.756.118 8.07 0 5.316-.023 5.981-.118 8.068-.094 2.081-.427 3.505-.91 4.75a9.6 9.6 0 01-2.257 3.468 9.595 9.595 0 01-3.465 2.255c-1.246.485-2.669.815-4.75.911-2.09.096-2.755.118-8.07.118-5.316 0-5.982-.023-8.069-.118-2.081-.094-3.505-.426-4.75-.91a9.601 9.601 0 01-3.467-2.256 9.593 9.593 0 01-2.258-3.466c-.482-1.245-.813-2.669-.91-4.75-.095-2.09-.117-2.756-.117-8.07 0-5.316.024-5.982.118-8.067s.427-3.508.909-4.753a9.6 9.6 0 012.26-3.466 9.593 9.593 0 013.463-2.258c1.246-.482 2.669-.813 4.75-.909h.002zm15.976 3.523c-2.064-.095-2.683-.114-7.909-.114-5.225 0-5.844.02-7.908.114-1.909.087-2.944.405-3.634.674-.913.356-1.566.778-2.25 1.462a6.07 6.07 0 00-1.463 2.251c-.269.69-.587 1.726-.674 3.635-.095 2.063-.114 2.683-.114 7.908 0 5.225.02 5.844.114 7.908.087 1.909.405 2.944.674 3.635a6.074 6.074 0 001.462 2.25 6.076 6.076 0 002.25 1.463c.691.268 1.726.587 3.636.674 2.063.094 2.68.114 7.907.114s5.845-.02 7.909-.114c1.909-.087 2.944-.406 3.634-.674.913-.356 1.566-.778 2.25-1.463a6.075 6.075 0 001.463-2.25c.269-.69.587-1.726.675-3.635.094-2.064.113-2.683.113-7.908 0-5.225-.02-5.845-.113-7.908-.088-1.91-.406-2.945-.675-3.635-.355-.913-.777-1.566-1.462-2.25a6.072 6.072 0 00-2.25-1.463c-.691-.269-1.726-.587-3.635-.674zM19.138 27.78a6.527 6.527 0 007.116-10.65 6.53 6.53 0 10-7.116 10.65zm-4.613-13.146A10.059 10.059 0 1128.75 28.859a10.059 10.059 0 01-14.225-14.225zm19.403-1.448a2.378 2.378 0 10-3.263-3.46 2.378 2.378 0 003.263 3.46z" fill="#fff"/></svg>