<svg width="30" height="30" fill="none" xmlns="http://www.w3.org/2000/svg"><path fill-rule="evenodd" clip-rule="evenodd" d="M9.331 1.333c1.466-.068 1.934-.083 5.669-.083 3.735 0 4.203.016 5.668.083 1.465.066 2.465.3 3.34.638a6.765 6.765 0 012.434 1.588c.7.686 1.24 1.516 1.585 2.433.34.875.573 1.875.64 3.338.068 1.469.083 1.936.083 5.67 0 3.735-.016 4.203-.082 5.669-.067 1.462-.3 2.462-.64 3.337a6.745 6.745 0 01-1.585 2.436 6.742 6.742 0 01-2.436 1.585c-.875.34-1.875.573-3.337.64-1.468.068-1.935.083-5.67.083s-4.203-.016-5.669-.082c-1.462-.067-2.462-.3-3.337-.64a6.745 6.745 0 01-2.436-1.585 6.74 6.74 0 01-1.587-2.436c-.339-.875-.571-1.875-.639-3.337-.067-1.469-.082-1.936-.082-5.67 0-3.735.016-4.203.083-5.668.066-1.465.3-2.465.638-3.34A6.745 6.745 0 013.56 3.558 6.74 6.74 0 015.992 1.97c.875-.339 1.875-.571 3.338-.639h.001zm11.225 2.474c-1.45-.066-1.885-.08-5.556-.08-3.671 0-4.106.014-5.556.08-1.342.062-2.069.286-2.554.474A4.27 4.27 0 005.309 5.31 4.265 4.265 0 004.28 6.89c-.188.485-.412 1.212-.473 2.554-.067 1.45-.08 1.885-.08 5.556 0 3.671.013 4.106.08 5.556.06 1.341.285 2.069.473 2.554.22.596.572 1.137 1.028 1.581.444.457.985.808 1.581 1.028.485.188 1.212.412 2.554.473 1.45.067 1.883.08 5.556.08 3.672 0 4.106-.013 5.556-.08 1.341-.06 2.069-.285 2.554-.473.641-.25 1.1-.547 1.581-1.028a4.267 4.267 0 001.028-1.581c.188-.485.412-1.212.473-2.554.067-1.45.08-1.885.08-5.556 0-3.671-.013-4.106-.08-5.556-.06-1.342-.285-2.069-.473-2.554a4.27 4.27 0 00-1.028-1.581 4.266 4.266 0 00-1.58-1.029c-.485-.188-1.212-.412-2.554-.473zM13.244 19.24a4.586 4.586 0 005-7.483 4.588 4.588 0 10-5 7.483zm-3.242-9.237a7.068 7.068 0 119.996 9.996 7.068 7.068 0 01-9.996-9.996zm13.633-1.017a1.672 1.672 0 10-2.296-2.433 1.672 1.672 0 002.296 2.433z" fill="#fff"/></svg>