<svg width="138" height="139" fill="none" xmlns="http://www.w3.org/2000/svg"><path d="M69.059 138.487C30.99 138.487.211 107.708.211 69.64.211 31.57 30.991.792 69.06.792s68.848 30.779 68.848 68.848c0 38.068-30.779 68.847-68.848 68.847zm0-129.595c-33.614 0-60.748 27.134-60.748 60.748 0 33.613 27.134 60.747 60.748 60.747s60.748-27.134 60.748-60.747c0-33.614-27.134-60.748-60.748-60.748z" fill="#fff"/><path d="M48.809 104.874V34.406l60.747 35.234-60.747 35.234zm8.1-56.698v42.523l36.448-21.464-36.449-21.059z" fill="#fff"/></svg>